<svg width="350" height="150" viewBox="0 0 350 150" fill="none" xmlns="http://www.w3.org/2000/svg">
<path d="M69.5705 39C65.2249 38.9923 60.9912 40.3998 57.4899 43.0164C55.6083 44.4192 53.3356 45.1755 51.0022 45.1755C48.6688 45.1755 46.3962 44.4192 44.5145 43.0164C41.0141 40.3981 36.7798 38.9903 32.434 39V39C29.7508 38.9995 27.0937 39.5362 24.6146 40.5797C22.1354 41.6231 19.8828 43.1529 17.9853 45.0815C16.0877 47.0101 14.5825 49.2998 13.5555 51.8199C12.5286 54.34 12 57.041 12 59.7688V100.824C12 102.294 12.2851 103.749 12.8389 105.106C13.3928 106.464 14.2046 107.697 15.2278 108.735C16.251 109.773 17.4655 110.596 18.8018 111.156C20.1382 111.716 21.5701 112.003 23.0157 112H79.0022C81.9183 112 84.7149 110.823 86.7773 108.727C88.8396 106.631 89.9988 103.789 90 100.824V59.7688C90 54.2606 87.8476 48.978 84.0163 45.0831C80.1851 41.1882 74.9887 39 69.5705 39Z" fill="#29B5ED"/>
<path d="M51.089 99C46.9453 98.987 42.8751 97.8744 39.2731 95.7702C35.6712 93.666 32.6598 90.6416 30.5309 86.9902C30.2939 86.6284 30.1314 86.2207 30.0533 85.792C29.9751 85.3634 29.983 84.9229 30.0765 84.4975C30.17 84.0722 30.347 83.6709 30.5969 83.3183C30.8467 82.9657 31.1639 82.6692 31.5293 82.447C31.8946 82.2248 32.3002 82.0815 32.7214 82.026C33.1425 81.9705 33.5702 82.004 33.9783 82.1243C34.3864 82.2445 34.7663 82.4492 35.0947 82.7256C35.423 83.002 35.693 83.3444 35.888 83.7317C37.4528 86.4418 39.6774 88.687 42.343 90.2464C45.0087 91.8059 48.0236 92.6259 51.0913 92.6259C54.159 92.6259 57.1739 91.8059 59.8396 90.2464C62.5052 88.687 64.7298 86.4418 66.2946 83.7317C66.7389 83.0534 67.4189 82.5753 68.1954 82.3953C68.9718 82.2153 69.7859 82.3471 70.4707 82.7637C71.1556 83.1803 71.6595 83.8501 71.879 84.6359C72.0986 85.4217 72.0172 86.264 71.6517 86.9902C69.5221 90.642 66.5099 93.6666 62.9071 95.7708C59.3044 97.875 55.2335 98.9873 51.089 99V99Z" fill="white"/>
<path d="M162.103 58.0008C156.631 58.0008 152.291 60.028 149.615 63.6905C147.077 59.7847 143.442 58.0008 138.246 58.0008C135.098 57.9673 132.033 59.0282 129.567 61.0055C129.111 60.2884 128.478 59.7035 127.731 59.3085C126.983 58.9135 126.146 58.7221 125.303 58.7531C122.181 58.7531 120 61.0506 120 64.3347V94.3824C120 97.6665 122.15 99.964 125.227 99.964C128.305 99.964 130.45 97.6665 130.45 94.3824V76.5249C130.45 72.5831 131.592 67.8845 137.033 67.8845C141.199 67.8845 143.313 70.6145 143.313 75.9934V94.4184C143.313 97.7025 145.463 100 148.54 100C151.618 100 153.763 97.7025 153.763 94.4184V76.5249C153.763 73.2994 154.597 67.8845 160.194 67.8845C164.414 67.8845 166.55 70.6145 166.55 75.9934V94.4184C166.55 97.7025 168.7 100 171.777 100C174.855 100 177 97.7025 177 94.4184V74.2094C177.018 63.0102 169.529 58.0008 162.103 58.0008Z" fill="#424242"/>
<path d="M203.502 58C191.433 58 183 66.6351 183 79C183 91.3649 191.433 100 203.502 100C215.572 100 224 91.3649 224 79C224 66.6351 215.572 58 203.502 58ZM203.502 90.2872C196.531 90.2872 194.061 84.2068 194.061 79C194.061 73.7932 196.531 67.7083 203.502 67.7083C210.474 67.7083 212.944 73.7888 212.944 79C212.944 84.2112 210.469 90.2872 203.502 90.2872Z" fill="#424242"/>
<path d="M238.002 62C235.012 62 233 64.409 233 67.9993V94.0007C233 97.6468 234.963 100 238.002 100C241.041 100 243 97.6468 243 94.0007V67.9993C243 64.409 240.992 62 238.002 62Z" fill="#424242"/>
<path d="M237.5 58C241.09 58 244 55.0899 244 51.5C244 47.9101 241.09 45 237.5 45C233.91 45 231 47.9101 231 51.5C231 55.0899 233.91 58 237.5 58Z" fill="#424242"/>
<path d="M285.333 45C282.047 45 279.661 47.3 279.661 50.4698V61.065C276.703 59.1702 273.25 58.1714 269.727 58.191C258.513 58.191 251 66.5789 251 79.0194C251 91.5659 258.535 99.998 269.727 99.998C273.679 100.056 277.544 98.852 280.749 96.5634C281.205 97.4273 281.899 98.1454 282.75 98.6339C283.602 99.1224 284.577 99.3612 285.56 99.3225C288.762 99.3225 291 97.071 291 93.8527V50.4786C291 47.3089 288.61 45 285.333 45ZM271.154 90.321C265.063 90.321 262.334 84.6791 262.334 79.0857C262.334 73.4923 265.063 67.8459 271.154 67.8459C277.245 67.8459 279.982 73.5011 279.982 79.0945C279.982 84.6879 277.24 90.3298 271.145 90.3298L271.154 90.321Z" fill="#424242"/>
<path d="M332.502 58.7649C330.289 58.7649 328.564 59.7412 327.668 61.3609C324.704 59.1518 320.975 58 316.667 58C305.458 58 297 67.0613 297 79.0786C297 91.0058 305.458 99.9997 316.667 99.9997C320.574 100.023 324.393 98.8528 327.61 96.6478C328.515 98.308 330.239 99.3113 332.483 99.3113C335.782 99.3113 338 97.1337 338 93.8898V64.1953C338.018 60.9425 335.801 58.7649 332.502 58.7649ZM317.708 90.2905C310.807 90.2905 308.359 84.2031 308.359 78.9931C308.359 73.7831 310.807 67.6912 317.708 67.6912C324.609 67.6912 327.062 73.7786 327.062 78.9931C327.062 84.4641 324.605 90.2905 317.708 90.2905Z" fill="#424242"/>
</svg>
