<svg width="16" height="16" viewBox="0 0 16 16" fill="none" xmlns="http://www.w3.org/2000/svg">
<path d="M11.8093 1.00001C10.9179 0.99844 10.0495 1.28246 9.33127 1.81043C8.94528 2.09348 8.4791 2.24609 8.00046 2.24609C7.52181 2.24609 7.05564 2.09348 6.66965 1.81043C5.95162 1.28211 5.08304 0.998052 4.19159 1.00001V1.00001C3.64119 0.99989 3.09615 1.1082 2.58761 1.31874C2.07907 1.52929 1.61698 1.83795 1.22774 2.22711C0.838507 2.61626 0.529742 3.07827 0.319084 3.58677C0.108425 4.09527 -1.31953e-08 4.64028 0 5.19068V13.4747C-6.13979e-07 13.7713 0.0584793 14.0649 0.172092 14.3388C0.285705 14.6127 0.45222 14.8615 0.662106 15.0709C0.871991 15.2804 1.12113 15.4464 1.39525 15.5594C1.66937 15.6725 1.9631 15.7304 2.25962 15.7298H13.744C14.3422 15.7298 14.9159 15.4922 15.3389 15.0693C15.762 14.6465 15.9998 14.0729 16 13.4747V5.19068C16 4.07925 15.5585 3.01333 14.7726 2.22743C13.9867 1.44153 12.9208 1.00001 11.8093 1.00001Z" fill="#29B5ED"/>
<path d="M7.99966 13.1292C7.16052 13.1266 6.33628 12.9072 5.60687 12.4924C4.87746 12.0775 4.26763 11.4812 3.83652 10.7612C3.78853 10.6899 3.75561 10.6095 3.73979 10.525C3.72397 10.4405 3.72557 10.3536 3.7445 10.2698C3.76343 10.1859 3.79928 10.1068 3.84987 10.0373C3.90046 9.96774 3.96471 9.90928 4.03869 9.86547C4.11267 9.82166 4.19481 9.79342 4.28009 9.78248C4.36537 9.77154 4.45199 9.77813 4.53463 9.80184C4.61727 9.82556 4.6942 9.8659 4.7607 9.9204C4.8272 9.9749 4.88187 10.0424 4.92136 10.1188C5.23824 10.6531 5.68873 11.0958 6.22854 11.4033C6.76835 11.7107 7.37888 11.8724 8.00012 11.8724C8.62135 11.8724 9.23189 11.7107 9.7717 11.4033C10.3115 11.0958 10.762 10.6531 11.0789 10.1188C11.1688 9.98504 11.3066 9.89076 11.4638 9.85528C11.621 9.81979 11.7859 9.84578 11.9246 9.92791C12.0633 10.01 12.1653 10.1421 12.2098 10.2971C12.2542 10.452 12.2377 10.6181 12.1637 10.7612C11.7325 11.4812 11.1225 12.0776 10.3929 12.4925C9.66333 12.9073 8.83894 13.1267 7.99966 13.1292V13.1292Z" fill="white"/>
</svg>
