<svg width="250" height="56" viewBox="0 0 250 56" fill="none" xmlns="http://www.w3.org/2000/svg">
<path d="M44.6358 2.65245e-05C41.2663 -0.00590864 37.9835 1.06767 35.2687 3.0634C33.8097 4.13332 32.0475 4.71019 30.2383 4.71019C28.429 4.71019 26.6668 4.13332 25.2078 3.0634C22.4931 1.06745 19.2102 -0.00615267 15.8407 2.65245e-05V2.65245e-05C11.6395 2.65245e-05 7.61037 1.66896 4.63965 4.63967C1.66894 7.61038 0 11.6395 0 15.8408V47.1545C0 49.4152 0.898072 51.5833 2.49664 53.1819C4.0952 54.7804 6.26331 55.6785 8.52402 55.6785H51.949C54.2097 55.6785 56.3778 54.7804 57.9764 53.1819C59.575 51.5833 60.473 49.4152 60.473 47.1545V15.8408C60.4735 13.7607 60.0642 11.7009 59.2685 9.77903C58.4728 7.85717 57.3063 6.11087 55.8356 4.63988C54.365 3.16889 52.6189 2.00201 50.6972 1.2059C48.7755 0.409785 46.7158 2.64746e-05 44.6358 2.65245e-05V2.65245e-05Z" fill="#29B5ED"/>
<path d="M30.2349 45.8466C27.0629 45.8369 23.9473 45.0078 21.1901 43.4395C18.433 41.8713 16.1278 39.6172 14.4982 36.8959C14.3168 36.6262 14.1924 36.3224 14.1326 36.0029C14.0728 35.6835 14.0788 35.3552 14.1504 35.0381C14.2219 34.7211 14.3575 34.422 14.5487 34.1593C14.7399 33.8965 14.9828 33.6755 15.2624 33.5099C15.542 33.3443 15.8526 33.2375 16.1749 33.1962C16.4973 33.1548 16.8247 33.1797 17.1371 33.2694C17.4495 33.359 17.7402 33.5115 17.9916 33.7175C18.243 33.9235 18.4496 34.1787 18.5989 34.4674C19.7969 36.4864 21.4997 38.1589 23.5398 39.3206C25.5799 40.4823 27.8872 41.0932 30.2349 41.0932C32.5826 41.0932 34.8898 40.4823 36.93 39.3206C38.9701 38.1589 40.6728 36.4864 41.8708 34.4674C42.2109 33.9618 42.7315 33.6055 43.3258 33.4713C43.9202 33.3372 44.5433 33.4354 45.0675 33.7459C45.5918 34.0564 45.9775 34.5556 46.1455 35.1412C46.3136 35.7269 46.2514 36.3547 45.9715 36.8959C44.3434 39.6186 42.0386 41.8738 39.2811 43.4422C36.5236 45.0106 33.4072 45.839 30.2349 45.8466V45.8466Z" fill="white"/>
<path d="M114.635 14.2075C110.378 14.2075 107.003 15.7687 104.921 18.5892C102.947 15.5813 100.12 14.2075 96.0745 14.2075C93.63 14.1846 91.2517 15.0015 89.3371 16.5215C88.9818 15.9692 88.4888 15.5188 87.9067 15.2147C87.3246 14.9105 86.6734 14.7631 86.017 14.7869C83.5885 14.7869 81.8955 16.5562 81.8955 19.0853V42.2254C81.8955 44.758 83.5677 46.5238 85.958 46.5238C88.3484 46.5238 90.024 44.758 90.024 42.2254V28.4558C90.024 25.4202 90.9122 21.8018 95.1447 21.8018C98.385 21.8018 100.029 23.9041 100.029 28.0465V42.2358C100.029 44.7684 101.702 46.5342 104.092 46.5342C106.482 46.5342 108.158 44.7684 108.158 42.2358V28.4558C108.158 25.9718 108.807 21.8018 113.161 21.8018C116.443 21.8018 118.104 23.9041 118.104 28.0465V42.2358C118.104 44.7684 119.777 46.5342 122.167 46.5342C124.557 46.5342 126.233 44.7684 126.233 42.2358V26.69C126.236 18.0653 120.408 14.2075 114.635 14.2075Z" fill="#29B5ED"/>
<path d="M146.636 14.208C137.38 14.208 130.917 20.9627 130.917 30.635C130.917 40.3074 137.38 47.0621 146.636 47.0621C155.892 47.0621 162.359 40.3074 162.359 30.635C162.359 20.9627 155.892 14.208 146.636 14.208ZM146.636 39.4644C141.294 39.4644 139.396 34.708 139.396 30.635C139.396 26.5621 141.294 21.8023 146.636 21.8023C151.979 21.8023 153.866 26.5621 153.866 30.6316C153.866 34.701 151.982 39.4644 146.636 39.4644V39.4644Z" fill="#29B5ED"/>
<path d="M172.69 18.1826C170.172 18.1826 168.437 19.9797 168.437 22.651V42.0478C168.437 44.7677 170.102 46.5232 172.676 46.5232C175.251 46.5232 176.919 44.7677 176.919 42.0478V22.651C176.933 19.9797 175.226 18.1826 172.69 18.1826Z" fill="#29B5ED"/>
<path d="M172.475 14.4291C175.309 14.4291 177.606 12.1319 177.606 9.29806C177.606 6.46425 175.309 4.16699 172.475 4.16699C169.641 4.16699 167.344 6.46425 167.344 9.29806C167.344 12.1319 169.641 14.4291 172.475 14.4291Z" fill="#29B5ED"/>
<path d="M209.749 3.84766C207.193 3.84766 205.337 5.65515 205.337 8.14609V16.4724C203.036 14.9871 200.352 14.2047 197.614 14.2208C188.889 14.2208 183.043 20.8124 183.043 30.5889C183.043 40.4486 188.906 47.0749 197.614 47.0749C200.687 47.1208 203.694 46.1743 206.187 44.3758C206.542 45.0545 207.083 45.6184 207.746 46.0022C208.409 46.386 209.168 46.5739 209.933 46.5441C212.424 46.5441 214.162 44.7782 214.162 42.2456V8.14609C214.162 5.65168 212.306 3.84766 209.749 3.84766ZM198.717 39.4633C193.975 39.4633 191.855 35.0295 191.855 30.634C191.855 26.2384 193.975 21.8012 198.717 21.8012C203.46 21.8012 205.579 26.2384 205.579 30.634C205.579 35.0295 203.456 39.4633 198.717 39.4633Z" fill="#29B5ED"/>
<path d="M245.768 15.2656C244.075 15.2656 242.753 16.0184 242.066 17.2673C239.794 15.5639 236.931 14.6758 233.632 14.6758C225.035 14.6758 218.555 21.6629 218.555 30.9294C218.555 40.1264 225.035 47.0615 233.632 47.0615C236.632 47.0815 239.565 46.1793 242.035 44.4769C242.729 45.7571 244.05 46.5307 245.768 46.5307C248.3 46.5307 250 44.8516 250 42.3502V19.453C250 16.9447 248.3 15.2656 245.768 15.2656ZM234.43 39.5817C229.139 39.5817 227.259 34.8878 227.259 30.8704C227.259 26.853 229.139 22.1555 234.43 22.1555C239.721 22.1555 241.601 26.8495 241.601 30.8704C241.601 35.0821 239.717 39.5817 234.43 39.5817Z" fill="#29B5ED"/>
</svg>
